{"title":"Cop Out 2010 DVDrip H264 (Ice-Team).MP4","uid":5708703,"size":550699003,"categoryP":"video","categoryS":"movies","magnet":"?xt=urn:btih:ec02dcb7bc84af11302f993be73e8ccf01f20c4c&amp;dn=Cop+Out+2010+DVDrip+H264+%28Ice-Team%29.MP4&amp;tr=udp%3A%2F%2Ftracker.openbittorrent.com%3A80&amp;tr=udp%3A%2F%2Fopen.demonii.com%3A1337&amp;tr=udp%3A%2F%2Ftracker.coppersurfer.tk%3A6969&amp;tr=udp%3A%2F%2Fexodus.desync.com%3A6969","seeders":0,"leechers":0,"uploader":null,"files":3,"time":1279758427,"description":"IDMB                             : http://www.imdb.com/title/tt1385867/\nGENRE                            : Action | Comedy | Crime\n\nFormat                           : MPEG-4\nFormat profile                   : Sony PSP\nCodec ID                         : MSNV\nFile size                        : 523 MiB\nDuration                         : 1h 47mn\nOverall bit rate                 : 681 Kbps\nEncoded date                     : UTC 1970-01-01 00:00:00\nTagged date                      : UTC 1970-01-01 00:00:00\n\nVideo\nID                               : 1\nFormat                           : MPEG-4 Visual\nFormat profile                   : Simple@L3\nFormat settings, BVOP            : No\nFormat settings, QPel            : No\nFormat settings, GMC             : No warppoints\nFormat settings, Matrix          : Default (H.263)\nCodec ID                         : 20\nDuration                         : 1h 47mn\nBit rate mode                    : Variable\nBit rate                         : 613 Kbps\nWidth                            : 400 pixels\nHeight                           : 170 pixels\nDisplay aspect ratio             : 2.35:1\nFrame rate mode                  : Constant\nFrame rate                       : 29.970 fps\nResolution                       : 24 bits\nColorimetry                      : 4:2:0\nScan type                        : Progressive\nBits/(Pixel*Frame)               : 0.301\nStream size                      : 472 MiB (90%)\nWriting library                  : XviD 1.2.0.dev47 (UTC 2006-11-01)\nEncoded date                     : UTC 1970-01-01 00:00:00\nTagged date                      : UTC 1970-01-01 00:00:00\n\nAudio\nID                               : 2\nFormat                           : AAC\nFormat/Info                      : Advanced Audio Codec\nFormat version                   : Version 4\nFormat profile                   : LC\nFormat settings, SBR             : Yes\nFormat settings, PS              : No\nCodec ID                         : 40\nDuration                         : 1h 47mn\nBit rate mode                    : Variable\nBit rate                         : 63.9 Kbps\nChannel(s)                       : 2 channels\nChannel positions                : L R\nSampling rate                    : 48.0 KHz\nResolution                       : 16 bits\nStream size                      : 49.1 MiB (9%)\nEncoded date                     : UTC 1970-01-01 00:00:00\nTagged date                      : UTC 1970-01-01 00:00:00\n\nPLOT:\n      comedy about a veteran NYPD cop whose rare baseball card is stolen. Since it's his only hope to pay for his daughter's upcoming wedding, he recruits his partner to track down the thief, a memorabilia-obsessed gangster.","torrent":{"xt":"urn:btih:ec02dcb7bc84af11302f993be73e8ccf01f20c4c","amp;dn":"Cop+Out+2010+DVDrip+H264+%28Ice-Team%29.MP4","amp;tr":["udp%3A%2F%2Ftracker.openbittorrent.com%3A80","udp%3A%2F%2Fopen.demonii.com%3A1337","udp%3A%2F%2Ftracker.coppersurfer.tk%3A6969","udp%3A%2F%2Fexodus.desync.com%3A6969"],"infoHash":"ec02dcb7bc84af11302f993be73e8ccf01f20c4c","infoHashBuffer":{"type":"Buffer","data":[236,2,220,183,188,132,175,17,48,47,153,59,231,62,140,207,1,242,12,76]},"announce":[],"urlList":[]}}